# xmcd
#
# Track frame offsets:
#	150
#	18802
#	38280
#	52152
#	68650
#	88787
#	108207
#	127307
#	141257
#	157652
#	173787
#	198162
#	215727
#	233322
#	247765
#	260107
#	277080
#	297087
#	316602
#	335317
#
# Disc length: 4724 seconds
#
# Revision: 3
# Processed by: cddbd v1.5.2PL0 Copyright (c) Steve Scherf et al.
# Submitted via: dBpowerAMP V4.0
#
DISCID=11127214
DTITLE=Various Artist - Salsa 100 Hits [CD2)
DYEAR=1900
DGENRE=Salsa
TTITLE0=Tipica 73 - Xiomara
TTITLE1=Sonora del Sol - Al vaiven de mi Carreta
TTITLE2=Oscar N'Co - Enamouré
TTITLE3=Edith Lefel - Non je ne regrette rien
TTITLE4=Ruben Blades - Juan Pachanga
TTITLE5=Fania All Stars - Bandoleo
TTITLE6=Willie Colon - Usted Abuso
TTITLE7=Tito Pente - Ran Kan Kan
TTITLE8=Ismael Rivera - Arrecotin Arrecotan
TTITLE9=Justo Betancourt - Pa Bravo Yo
TTITLE10=Sonora del Sol - Chan Chan
TTITLE11=Sandy Aruba - Ne me Quitte Pas
TTITLE12=Eddie Palmieri - El Cuarto
TTITLE13=Tito Puente and La Lupe - Pata Pata
TTITLE14=La Lupe - Fever
TTITLE15=Ray Barretto - El nuevo Barretto
TTITLE16=Ricardo Vilas - A Felicidad
TTITLE17=Willie Colon - Abuelita
TTITLE18=Celia Cruz - and Ray Barretto - No me cambie Camino
TTITLE19=Sonora Poncena - Guaguanco de Esquina
EXTD=
EXTT0=
EXTT1=
EXTT2=
EXTT3=
EXTT4=
EXTT5=
EXTT6=
EXTT7=
EXTT8=
EXTT9=
EXTT10=
EXTT11=
EXTT12=
EXTT13=
EXTT14=
EXTT15=
EXTT16=
EXTT17=
EXTT18=
EXTT19=
PLAYORDER=
